<svg width="20" height="21" viewBox="0 0 20 21" fill="none" xmlns="http://www.w3.org/2000/svg">
<path d="M17.5 4.25H2.5C2.16848 4.25 1.85054 4.3817 1.61612 4.61612C1.3817 4.85054 1.25 5.16848 1.25 5.5V15.5C1.25 15.8315 1.3817 16.1495 1.61612 16.3839C1.85054 16.6183 2.16848 16.75 2.5 16.75H17.5C17.8315 16.75 18.1495 16.6183 18.3839 16.3839C18.6183 16.1495 18.75 15.8315 18.75 15.5V5.5C18.75 5.16848 18.6183 4.85054 18.3839 4.61612C18.1495 4.3817 17.8315 4.25 17.5 4.25ZM16.125 5.5L10 9.7375L3.875 5.5H16.125ZM2.5 15.5V6.06875L9.64375 11.0125C9.74837 11.0851 9.87267 11.124 10 11.124C10.1273 11.124 10.2516 11.0851 10.3562 11.0125L17.5 6.06875V15.5H2.5Z" fill="#686F80"/>
</svg>
